<?xml version="1.0" encoding="UTF-8" standalone="no"?><!DOCTYPE svg PUBLIC "-//W3C//DTD SVG 1.1//EN" "http://www.w3.org/Graphics/SVG/1.1/DTD/svg11.dtd"><svg width="100%" height="100%" viewBox="0 0 225 225" version="1.1" xmlns="http://www.w3.org/2000/svg" xmlns:xlink="http://www.w3.org/1999/xlink" xml:space="preserve" style="fill-rule:evenodd;clip-rule:evenodd;stroke-linejoin:round;stroke-miterlimit:1.41421;"><g><path d="M0,0l150,225l-150,0l0,-225Z" style="fill:#77b6cb;"/><clipPath id="_clip1"><path d="M0,0l150,225l-150,0l0,-225Z"/></clipPath><g clip-path="url(#_clip1)"><path d="M15.221,-45l-159.099,159.099l127.279,127.279l159.099,-159.099l-127.279,-127.279Z" style="fill:#777ccb;"/><path d="M184.903,16.654l-175.37,-101.25l-75,129.904l175.37,101.25l75,-129.904Z" style="fill:#d364af;"/></g><g><path d="M225,112.5l0,112.5l-81.881,0l81.881,-112.5Z" style="fill:#f6eb00;"/><path d="M150,105l75,120l-150,0l75,-120Z" style="fill:#dc5d62;"/><path d="M187.172,164.474l37.828,60.526l-81.881,0l44.053,-60.526Z" style="fill:#f8a500;"/><path d="M111.29,166.935l38.71,58.065l-75,0l36.29,-58.065Z" style="fill:#3a9d7b;"/></g></g></svg>