<?xml version="1.0" standalone="no"?>
<!DOCTYPE svg PUBLIC "-//W3C//DTD SVG 20010904//EN"
 "http://www.w3.org/TR/2001/REC-SVG-20010904/DTD/svg10.dtd">
<svg version="1.0" xmlns="http://www.w3.org/2000/svg"
 width="16.000000pt" height="16.000000pt" viewBox="0 0 16.000000 16.000000"
 preserveAspectRatio="xMidYMid meet">
<metadata>
Created by potrace 1.11, written by Peter Selinger 2001-2013
</metadata>
<g transform="translate(0.000000,16.000000) scale(0.001563,-0.001563)"
fill="#000000" stroke="none">
<path d="M0 5115 l0 -5115 5120 0 5120 0 0 2557 c0 1566 -4 2553 -9 2548 -5
-6 -57 -75 -115 -155 -58 -80 -109 -149 -113 -155 -11 -13 -268 -368 -305
-420 -15 -22 -59 -83 -98 -135 -38 -52 -114 -156 -168 -230 -53 -74 -102 -142
-109 -150 -7 -8 -59 -80 -117 -160 -58 -80 -109 -149 -113 -155 -5 -5 -28 -37
-51 -70 -23 -33 -83 -117 -134 -187 -51 -69 -158 -216 -238 -327 -80 -110
-147 -200 -150 -201 -4 0 -614 969 -660 1049 -8 14 -18 28 -21 31 -3 3 -8 10
-10 15 -2 6 -229 370 -503 809 l-499 798 -21 -34 c-12 -19 -136 -217 -276
-441 -140 -223 -260 -415 -265 -426 -6 -10 -22 -36 -36 -57 -15 -22 -57 -88
-94 -149 -38 -60 -78 -126 -90 -145 -87 -136 -315 -502 -315 -505 0 -3 -17
-30 -39 -62 -21 -32 -146 -230 -277 -440 -284 -454 -260 -416 -308 -496 -39
-65 -39 -65 -56 -44 -9 12 -243 362 -519 777 -275 415 -504 760 -509 765 -4 6
-27 42 -52 80 -24 39 -47 72 -50 75 -3 3 -34 50 -70 105 -36 55 -67 102 -70
105 -3 3 -25 37 -50 75 -25 39 -47 72 -50 75 -3 3 -21 30 -40 60 -19 30 -37
57 -40 60 -3 3 -34 50 -70 105 -36 55 -67 102 -70 105 -3 3 -21 30 -40 60 -19
30 -37 57 -40 60 -3 3 -25 37 -50 75 -25 39 -47 72 -50 75 -3 3 -34 50 -70
105 -36 55 -67 102 -70 105 -3 3 -25 37 -50 75 -25 39 -47 72 -50 75 -5 5 -43
62 -169 255 -25 39 -48 72 -51 75 -3 3 -21 30 -40 60 -19 30 -37 57 -40 60 -3
3 -26 37 -50 75 -25 39 -49 75 -53 80 -11 13 -137 203 -185 279 -20 32 -42 63
-47 70 -6 6 -26 36 -45 66 -19 30 -38 60 -43 65 -12 14 -141 209 -175 264 -15
24 -32 48 -37 55 -6 6 -30 43 -55 81 -25 39 -48 75 -53 80 -4 6 -34 49 -65 96
-59 89 -241 362 -301 453 -45 67 -75 112 -199 297 -56 85 -129 195 -163 244
-33 50 -76 116 -97 149 -20 32 -42 63 -47 70 -6 6 -26 36 -45 66 -19 30 -38
60 -43 65 -12 14 -141 209 -175 264 -15 24 -32 48 -37 55 -6 6 -30 43 -55 81
-25 39 -49 75 -53 80 -11 13 -137 203 -185 279 -20 32 -41 63 -47 70 -5 6 -35
49 -66 96 -31 47 -82 125 -115 173 -32 49 -71 107 -86 130 -14 23 -30 47 -35
52 -4 6 -28 42 -53 80 -24 39 -47 72 -50 75 -3 3 -21 29 -39 58 -18 28 -35 52
-37 52 -2 0 -4 -2302 -4 -5115z"/>
</g>
</svg>
